<svg xmlns="http://www.w3.org/2000/svg" viewBox="0 0 800 900" role="img" aria-labelledby="title desc">
  <title id="title">Summer 老師虛構合成人像</title>
  <desc id="desc">一位穿著混合西裝、空服員制服與學士袍的虛構亞洲女性，站在模糊圖書館前，胸前別滿金色徽章，雙手藏在一本無字書後。</desc>
  <defs>
    <linearGradient id="library" x1="0" y1="0" x2="1" y2="1">
      <stop offset="0" stop-color="#253c78"/>
      <stop offset=".5" stop-color="#8a6b3c"/>
      <stop offset="1" stop-color="#152850"/>
    </linearGradient>
    <linearGradient id="coat" x1="0" y1="0" x2="1" y2="1">
      <stop offset="0" stop-color="#15377f"/>
      <stop offset=".55" stop-color="#071d51"/>
      <stop offset="1" stop-color="#251553"/>
    </linearGradient>
    <linearGradient id="book" x1="0" y1="0" x2="1" y2="1">
      <stop offset="0" stop-color="#f9f1cf"/>
      <stop offset="1" stop-color="#d2b86b"/>
    </linearGradient>
    <radialGradient id="skin" cx="45%" cy="34%" r="75%">
      <stop offset="0" stop-color="#ffe8d2"/>
      <stop offset=".7" stop-color="#f4c39f"/>
      <stop offset="1" stop-color="#d38b6e"/>
    </radialGradient>
    <filter id="blur"><feGaussianBlur stdDeviation="8"/></filter>
    <filter id="glow"><feDropShadow dx="0" dy="0" stdDeviation="8" flood-color="#fff3bd" flood-opacity=".72"/></filter>
  </defs>

  <rect width="800" height="900" fill="url(#library)"/>
  <g filter="url(#blur)" opacity=".72">
    <rect x="30" y="62" width="182" height="640" rx="8" fill="#502f23"/>
    <rect x="588" y="62" width="182" height="640" rx="8" fill="#502f23"/>
    <g fill="#e4bf70">
      <rect x="48" y="94" width="142" height="52"/><rect x="48" y="170" width="142" height="44"/>
      <rect x="48" y="242" width="142" height="62"/><rect x="48" y="328" width="142" height="48"/>
      <rect x="48" y="410" width="142" height="56"/><rect x="48" y="496" width="142" height="44"/>
      <rect x="610" y="94" width="142" height="52"/><rect x="610" y="170" width="142" height="44"/>
      <rect x="610" y="242" width="142" height="62"/><rect x="610" y="328" width="142" height="48"/>
      <rect x="610" y="410" width="142" height="56"/><rect x="610" y="496" width="142" height="44"/>
    </g>
    <ellipse cx="400" cy="126" rx="145" ry="76" fill="#fff9da" opacity=".46"/>
  </g>

  <path d="M160 900c8-205 54-318 152-355h176c101 37 147 150 155 355z" fill="url(#coat)"/>
  <path d="M291 549l109 181 110-181 66 38-51 313H278l-54-313z" fill="#143b87" opacity=".74"/>
  <path d="M289 560l111 170 112-170-56-18H344z" fill="#f7f0dc"/>
  <path d="M344 542l56 188 56-188-16-53h-80z" fill="url(#skin)"/>

  <path d="M262 267c8-139 79-213 144-213 106 0 166 91 148 252l-35-38c-16-95-61-139-127-139-59 0-98 49-105 139z" fill="#171423"/>
  <path d="M267 281c-3-128 62-201 132-204 109-4 163 90 151 222l-22 173c-12 103-68 158-129 158-66 0-121-61-130-165z" fill="url(#skin)"/>
  <path d="M270 324c-22-21-42 5-31 54 10 45 31 71 51 65z" fill="#eab18f"/>
  <path d="M531 326c22-21 42 5 31 54-10 45-31 71-51 65z" fill="#eab18f"/>

  <path d="M291 258c24-13 44-81 114-92 57-9 103 27 131 84-13-130-67-190-139-184-86 7-137 83-130 210z" fill="#1b1725"/>
  <path d="M293 263c43-9 73-55 99-93-3 49 34 79 119 95" fill="none" stroke="#292139" stroke-width="28" stroke-linecap="round"/>

  <path d="M313 356c24-20 53-19 76-2" fill="none" stroke="#51342d" stroke-width="7" stroke-linecap="round"/>
  <path d="M420 354c27-18 55-16 78 5" fill="none" stroke="#51342d" stroke-width="7" stroke-linecap="round"/>
  <ellipse cx="353" cy="374" rx="12" ry="10" fill="#211d27"/><ellipse cx="461" cy="374" rx="12" ry="10" fill="#211d27"/>
  <circle cx="357" cy="371" r="3" fill="#fff"/><circle cx="465" cy="371" r="3" fill="#fff"/>
  <path d="M401 375c-6 39-11 63 9 67" fill="none" stroke="#c27d65" stroke-width="6" stroke-linecap="round"/>
  <ellipse cx="334" cy="426" rx="39" ry="19" fill="#ef9b94" opacity=".27"/><ellipse cx="475" cy="426" rx="39" ry="19" fill="#ef9b94" opacity=".27"/>
  <path d="M339 468c38 47 92 46 130-2-47-20-89-19-130 2z" fill="#a92f46"/>
  <path d="M353 468c30-12 65-11 101 0-26 18-74 20-101 0z" fill="#fffdf5"/>
  <path d="M367 507c22 11 50 11 72-1" fill="none" stroke="#c98277" stroke-width="5" stroke-linecap="round"/>

  <path d="M312 558l-69 57 78 22 79 93-95-182z" fill="#071b50"/>
  <path d="M488 558l70 57-80 22-78 93 96-182z" fill="#071b50"/>
  <path d="M237 579l-45 41 70 45 38-81z" fill="#d7b85d"/>
  <path d="M563 579l45 41-70 45-38-81z" fill="#d7b85d"/>

  <g filter="url(#glow)">
    <circle cx="302" cy="650" r="30" fill="#f7cf59" stroke="#fff1ad" stroke-width="5"/>
    <path d="M302 630l6 13 15 2-11 10 3 15-13-8-14 8 4-15-12-10 16-2z" fill="#8f5f04"/>
    <circle cx="498" cy="650" r="30" fill="#f7cf59" stroke="#fff1ad" stroke-width="5"/>
    <path d="M498 630l6 13 15 2-11 10 3 15-13-8-14 8 4-15-12-10 16-2z" fill="#8f5f04"/>
    <circle cx="348" cy="698" r="24" fill="#e5b63d" stroke="#fff1ad" stroke-width="4"/>
    <circle cx="452" cy="698" r="24" fill="#e5b63d" stroke="#fff1ad" stroke-width="4"/>
  </g>

  <path d="M200 755c76-34 144-46 200-30 57-16 125-4 201 30l-26 145H225z" fill="url(#book)" stroke="#8a6b2b" stroke-width="8"/>
  <path d="M400 728v172" stroke="#8a6b2b" stroke-width="7"/>
  <path d="M230 788c65-22 118-27 160-16M570 788c-65-22-118-27-160-16" fill="none" stroke="#c4a45d" stroke-width="5"/>
  <circle cx="400" cy="818" r="36" fill="#15377f" stroke="#e8c354" stroke-width="8"/>
  <path d="M400 793l8 17 19 3-14 13 4 19-17-10-17 10 4-19-14-13 19-3z" fill="#f7d875"/>

  <rect x="0" y="0" width="800" height="900" fill="none" stroke="#efd179" stroke-width="14"/>
</svg>
